<svg width="328" height="64" viewBox="0 0 328 64" fill="none" xmlns="http://www.w3.org/2000/svg">
<rect width="328" height="64" rx="32" fill="#101010"/>
<circle cx="296.5" cy="31.5" r="22.5" fill="white"/>
<path d="M285 31.5H305.5M305.5 31.5L298.5 25M305.5 31.5L298.5 38" stroke="#101010" stroke-width="2"/>
<path d="M28.49 41V26.45H41.66V41H39.29V28.52H30.89V41H28.49ZM47.8534 28.34C49.3334 26.84 51.2234 26.09 53.5234 26.09C55.8234 26.09 57.7134 26.84 59.1934 28.34C60.6734 29.84 61.4134 31.64 61.4134 33.74C61.4134 35.84 60.6734 37.64 59.1934 39.14C57.7134 40.62 55.8234 41.36 53.5234 41.36C51.2234 41.36 49.3334 40.62 47.8534 39.14C46.3734 37.64 45.6334 35.84 45.6334 33.74C45.6334 31.64 46.3734 29.84 47.8534 28.34ZM49.6234 37.67C50.6634 38.71 51.9634 39.23 53.5234 39.23C55.0834 39.23 56.3834 38.71 57.4234 37.67C58.4634 36.61 58.9834 35.3 58.9834 33.74C58.9834 32.18 58.4634 30.87 57.4234 29.81C56.3834 28.75 55.0834 28.22 53.5234 28.22C51.9634 28.22 50.6634 28.75 49.6234 29.81C48.5834 30.87 48.0634 32.18 48.0634 33.74C48.0634 35.3 48.5834 36.61 49.6234 37.67ZM62.9881 45.23V38.93H64.8181C65.6981 37.75 66.3181 36.2 66.6781 34.28C67.0581 32.36 67.2481 29.75 67.2481 26.45H78.1981V38.93H80.8681V45.23H78.5881V41H65.2681V45.23H62.9881ZM67.4281 38.93H75.8281V28.52H69.4381C69.4381 33.24 68.7681 36.71 67.4281 38.93ZM86.7591 47H84.3591V26.45H86.7591V28.7C88.0991 26.96 89.9391 26.09 92.2791 26.09C94.3991 26.09 96.1391 26.84 97.4991 28.34C98.8591 29.82 99.5391 31.61 99.5391 33.71C99.5391 35.83 98.8591 37.64 97.4991 39.14C96.1391 40.62 94.3991 41.36 92.2791 41.36C89.8991 41.36 88.0591 40.49 86.7591 38.75V47ZM86.7591 31.37V36.11C87.1791 37.03 87.8291 37.78 88.7091 38.36C89.5891 38.94 90.5891 39.23 91.7091 39.23C93.2691 39.23 94.5591 38.7 95.5791 37.64C96.5991 36.58 97.1091 35.27 97.1091 33.71C97.1091 32.15 96.5991 30.85 95.5791 29.81C94.5591 28.75 93.2691 28.22 91.7091 28.22C90.6491 28.22 89.6591 28.52 88.7391 29.12C87.8391 29.72 87.1791 30.47 86.7591 31.37ZM104.601 28.34C106.081 26.84 107.971 26.09 110.271 26.09C112.571 26.09 114.461 26.84 115.941 28.34C117.421 29.84 118.161 31.64 118.161 33.74C118.161 35.84 117.421 37.64 115.941 39.14C114.461 40.62 112.571 41.36 110.271 41.36C107.971 41.36 106.081 40.62 104.601 39.14C103.121 37.64 102.381 35.84 102.381 33.74C102.381 31.64 103.121 29.84 104.601 28.34ZM106.371 37.67C107.411 38.71 108.711 39.23 110.271 39.23C111.831 39.23 113.131 38.71 114.171 37.67C115.211 36.61 115.731 35.3 115.731 33.74C115.731 32.18 115.211 30.87 114.171 29.81C113.131 28.75 111.831 28.22 110.271 28.22C108.711 28.22 107.411 28.75 106.371 29.81C105.331 30.87 104.811 32.18 104.811 33.74C104.811 35.3 105.331 36.61 106.371 37.67ZM129.174 41.36C126.694 41.36 124.754 40.5 123.354 38.78C121.974 37.06 121.284 34.72 121.284 31.76C121.284 30.84 121.334 30 121.434 29.24C121.534 28.46 121.694 27.75 121.914 27.11C122.134 26.47 122.374 25.89 122.634 25.37C122.894 24.85 123.244 24.38 123.684 23.96C124.124 23.54 124.544 23.17 124.944 22.85C125.344 22.51 125.864 22.2 126.504 21.92C127.144 21.64 127.734 21.4 128.274 21.2C128.814 21 129.494 20.8 130.314 20.6C131.134 20.4 131.864 20.24 132.504 20.12C133.144 19.98 133.954 19.82 134.934 19.64V21.86C131.714 22.46 129.614 22.94 128.634 23.3C126.394 24.08 124.914 25.34 124.194 27.08C123.794 28 123.564 29.11 123.504 30.41C124.104 29.39 124.944 28.59 126.024 28.01C127.124 27.43 128.394 27.14 129.834 27.14C131.714 27.14 133.294 27.78 134.574 29.06C135.874 30.34 136.524 31.96 136.524 33.92C136.524 36.1 135.814 37.89 134.394 39.29C132.994 40.67 131.254 41.36 129.174 41.36ZM129.174 39.23C130.574 39.23 131.744 38.76 132.684 37.82C133.644 36.86 134.124 35.62 134.124 34.1C134.124 32.64 133.654 31.47 132.714 30.59C131.794 29.71 130.654 29.27 129.294 29.27C128.074 29.27 126.944 29.64 125.904 30.38C124.864 31.12 124.124 31.98 123.684 32.96C123.784 34.94 124.304 36.48 125.244 37.58C126.184 38.68 127.494 39.23 129.174 39.23ZM140.433 41V26.45H142.833V32.48H151.443V26.45H153.813V41H151.443V34.61H142.833V41H140.433ZM165.792 41.36C163.532 41.36 161.632 40.65 160.092 39.23C158.552 37.79 157.782 35.96 157.782 33.74C157.782 31.54 158.462 29.72 159.822 28.28C161.202 26.82 162.992 26.09 165.192 26.09C166.332 26.09 167.352 26.33 168.252 26.81C169.172 27.27 169.892 27.88 170.412 28.64C170.932 29.4 171.322 30.21 171.582 31.07C171.862 31.93 172.002 32.8 172.002 33.68V34.34H160.212C160.372 35.84 160.992 37.03 162.072 37.91C163.172 38.79 164.572 39.23 166.272 39.23C167.952 39.23 169.512 38.78 170.952 37.88V39.98C169.732 40.9 168.012 41.36 165.792 41.36ZM160.242 32.42H169.602C169.542 31.36 169.132 30.4 168.372 29.54C167.632 28.66 166.532 28.22 165.072 28.22C163.672 28.22 162.532 28.64 161.652 29.48C160.792 30.3 160.322 31.28 160.242 32.42ZM182.93 41.36C180.67 41.36 178.77 40.65 177.23 39.23C175.69 37.79 174.92 35.96 174.92 33.74C174.92 31.54 175.6 29.72 176.96 28.28C178.34 26.82 180.13 26.09 182.33 26.09C183.47 26.09 184.49 26.33 185.39 26.81C186.31 27.27 187.03 27.88 187.55 28.64C188.07 29.4 188.46 30.21 188.72 31.07C189 31.93 189.14 32.8 189.14 33.68V34.34H177.35C177.51 35.84 178.13 37.03 179.21 37.91C180.31 38.79 181.71 39.23 183.41 39.23C185.09 39.23 186.65 38.78 188.09 37.88V39.98C186.87 40.9 185.15 41.36 182.93 41.36ZM177.38 32.42H186.74C186.68 31.36 186.27 30.4 185.51 29.54C184.77 28.66 183.67 28.22 182.21 28.22C180.81 28.22 179.67 28.64 178.79 29.48C177.93 30.3 177.46 31.28 177.38 32.42Z" fill="white"/>
</svg>
