<svg width="219" height="219" viewBox="0 0 219 219" fill="none" xmlns="http://www.w3.org/2000/svg">
<rect x="0.5" y="218.5" width="218" height="218" rx="29.5" transform="rotate(-90 0.5 218.5)" fill="#101010" stroke="#101010"/>
<path d="M75.7129 165.53C32.8802 165.53 20.5906 133.36 20.5906 94.5038C20.5906 55.6471 32.8802 23.4774 75.7129 23.4774C118.546 23.4774 130.835 55.6471 130.835 94.5038C130.835 133.36 118.546 165.53 75.7129 165.53ZM75.7129 149.445C106.256 149.445 113.666 126.312 113.666 94.5038C113.666 62.8763 106.256 39.5623 75.7129 39.5623C45.1697 39.5623 37.7598 62.8763 37.7598 94.5038C37.7598 126.312 45.1697 149.445 75.7129 149.445ZM188.376 163H171.388V43.8998C162.351 54.382 153.315 59.081 144.278 62.6955V41.5503C153.315 38.8393 162.351 34.6826 171.388 27.092H188.376V163Z" fill="white"/>
<path d="M74.9 184.784C76.532 184.784 78.044 185.168 79.436 185.936C80.78 186.68 81.86 187.772 82.676 189.212C83.492 190.604 83.9 192.188 83.9 193.964C83.924 196.628 83.048 198.872 81.272 200.696C79.52 202.496 77.36 203.372 74.792 203.324C72.464 203.324 70.556 202.676 69.068 201.38C67.676 200.252 66.776 198.968 66.368 197.528L68.708 196.7C68.972 197.42 69.392 198.128 69.968 198.824C70.28 199.208 70.664 199.568 71.12 199.904C72.176 200.648 73.424 201.02 74.864 201.02C76.664 201.02 78.14 200.444 79.292 199.292C80.396 198.14 81.044 196.676 81.236 194.9H72.74V192.632H81.164C80.876 191 80.156 189.668 79.004 188.636C77.876 187.604 76.496 187.088 74.864 187.088C73.064 187.088 71.624 187.604 70.544 188.636C69.632 189.5 69.044 190.376 68.78 191.264L66.476 190.472C66.884 188.912 67.892 187.58 69.5 186.476C71.132 185.348 72.932 184.784 74.9 184.784ZM100.18 185.108V187.412H93.8082V203H91.1802V187.412H84.8082V185.108H100.18ZM113.732 192.668V191.48C113.732 188.576 112.208 187.124 109.16 187.124C107.696 187.124 106.568 187.52 105.776 188.312C105.056 189.032 104.624 189.848 104.48 190.76L101.96 190.22C101.984 189.716 102.224 189.08 102.68 188.312C103.136 187.544 103.736 186.86 104.48 186.26C105.752 185.276 107.336 184.784 109.232 184.784C112.496 184.784 114.668 186.02 115.748 188.492C116.108 189.332 116.288 190.316 116.288 191.444V196.484C116.288 199.412 116.384 201.584 116.576 203H113.984C113.816 202.088 113.732 201.044 113.732 199.868C112.22 202.172 110.204 203.324 107.684 203.324C105.884 203.324 104.444 202.82 103.364 201.812C102.236 200.828 101.672 199.568 101.672 198.032V197.852C101.672 196.076 102.38 194.768 103.796 193.928C105.236 193.088 106.892 192.668 108.764 192.668H113.732ZM113.732 194.828H108.728C107.624 194.828 106.652 195.032 105.812 195.44C104.804 195.872 104.3 196.664 104.3 197.816C104.3 198.8 104.672 199.58 105.416 200.156C106.136 200.732 107.048 201.02 108.152 201.02C109.712 201.02 111.044 200.492 112.148 199.436C113.204 198.428 113.732 197.096 113.732 195.44V194.828ZM137.215 193.784L145.963 203H142.435L134.263 194.324H134.011V203H131.419V194.324H131.167L123.031 203H119.467L128.215 193.784L119.683 185.108H123.031L131.167 193.352H131.419V185.108H134.011V193.352H134.299L142.435 185.108H145.783L137.215 193.784Z" fill="white"/>
</svg>
