<svg width="294" height="191" viewBox="0 0 294 191" fill="none" xmlns="http://www.w3.org/2000/svg">
<rect x="1.23047" y="0.5" width="292.27" height="190" rx="29.5" fill="#FFBD70" stroke="#101010"/>
<path d="M36.3827 153.909C36.3827 149.012 40.3526 145.042 45.2498 145.042C50.1469 145.042 54.1168 149.012 54.1168 153.909V190.082H36.3827V153.909Z" fill="white" stroke="#101010"/>
<path d="M58.6285 153.909C58.6285 149.012 62.5985 145.042 67.4956 145.042C72.3928 145.042 76.3627 149.012 76.3627 153.909V190.081H58.6285V153.909Z" fill="white" stroke="#101010"/>
<path d="M80.875 142.797C80.875 137.9 84.8449 133.93 89.7421 133.93C94.6392 133.93 98.6091 137.9 98.6091 142.797V190.082H80.875V142.797Z" fill="white" stroke="#101010"/>
<path d="M103.12 126.921C103.12 122.024 107.09 118.054 111.988 118.054C116.885 118.054 120.855 122.024 120.855 126.921V190.082H103.12V126.921Z" fill="white" stroke="#101010"/>
<path d="M125.366 90.4071C125.366 85.51 129.336 81.54 134.233 81.54C139.13 81.54 143.1 85.51 143.1 90.4071V190.082H125.366V90.4071Z" fill="white" stroke="#101010"/>
<path d="M147.612 44.3671C147.612 39.4699 151.581 35.5 156.479 35.5C161.376 35.5 165.346 39.4699 165.346 44.3671V190.082H147.612V44.3671Z" fill="white" stroke="#101010"/>
<path d="M169.858 58.6552C169.858 53.758 173.828 49.7881 178.725 49.7881C183.622 49.7881 187.592 53.758 187.592 58.6552V190.082H169.858V58.6552Z" fill="white" stroke="#101010"/>
<path d="M192.104 95.1688C192.104 90.2717 196.073 86.3018 200.971 86.3018C205.868 86.3018 209.838 90.2717 209.838 95.1688V190.081H192.104V95.1688Z" fill="white" stroke="#101010"/>
<path d="M214.349 117.395C214.349 112.498 218.319 108.528 223.216 108.528C228.113 108.528 232.083 112.498 232.083 117.395V190.082H214.349V117.395Z" fill="white" stroke="#101010"/>
<path d="M236.595 133.271C236.595 128.374 240.565 124.404 245.463 124.404C250.36 124.404 254.33 128.374 254.33 133.271V190.082H236.595V133.271Z" fill="white" stroke="#101010"/>
</svg>
