<svg width="294" height="191" viewBox="0 0 294 191" fill="none" xmlns="http://www.w3.org/2000/svg">
<rect x="0.5" y="0.5" width="291" height="190" rx="29.5" fill="#9A92F7" stroke="#101010"/>
<mask id="mask0_322_92" style="mask-type:alpha" maskUnits="userSpaceOnUse" x="0" y="0" width="294" height="191">
<rect x="0.5" y="0.5" width="292.27" height="190" rx="29.5" fill="#9A92F7" stroke="black"/>
</mask>
<g mask="url(#mask0_322_92)">
<ellipse cx="147.137" cy="-28.5" rx="171.241" ry="170.5" fill="#101010"/>
</g>
<path d="M97.6166 49.7993C102.865 49.7993 106.991 51.6404 109.996 55.3225C113.001 58.9622 114.503 64.0621 114.503 70.6221C114.503 77.817 112.768 83.8056 109.298 88.5881C105.827 93.3706 101.087 95.7618 95.0772 95.7618C91.5221 95.7618 88.3691 94.8519 85.6181 93.032V88.1437C88.3691 90.0059 91.374 90.937 94.6328 90.937C97.1299 90.937 99.3306 90.4291 101.235 89.4134C103.182 88.3977 104.727 87.0222 105.87 85.2869C107.012 83.5094 107.88 81.5837 108.472 79.5099C109.065 77.3938 109.382 75.1718 109.425 72.8441C108.282 74.7486 106.61 76.2722 104.409 77.4149C102.209 78.5153 99.6481 79.0655 96.7278 79.0655C92.7071 79.0655 89.3002 77.7535 86.5069 75.1295C83.7559 72.4632 82.3804 69.0562 82.3804 64.9085C82.3804 60.507 83.8405 56.8884 86.7608 54.0528C89.6811 51.2172 93.2997 49.7993 97.6166 49.7993ZM97.8705 54.6241C94.9079 54.6241 92.432 55.5976 90.4429 57.5444C88.4537 59.4489 87.4591 61.8825 87.4591 64.8451C87.4591 67.7653 88.4537 70.1142 90.4429 71.8918C92.4744 73.6694 94.9926 74.5581 97.9975 74.5581C100.537 74.5581 102.865 73.7752 104.981 72.2092C107.139 70.6433 108.599 68.6753 109.361 66.3052C109.023 62.5808 107.88 59.7029 105.933 57.6714C103.986 55.6399 101.299 54.6241 97.8705 54.6241ZM154.348 89.1595C150.962 93.561 146.56 95.7618 141.143 95.7618C135.726 95.7618 131.303 93.561 127.875 89.1595C124.489 84.7156 122.796 79.2559 122.796 72.7806C122.796 66.3052 124.489 60.8667 127.875 56.4652C131.303 52.0213 135.726 49.7993 141.143 49.7993C146.56 49.7993 150.962 52.0213 154.348 56.4652C157.733 60.8667 159.426 66.3052 159.426 72.7806C159.426 79.2559 157.733 84.7156 154.348 89.1595ZM131.684 85.7313C134.138 89.2018 137.291 90.937 141.143 90.937C144.994 90.937 148.147 89.2018 150.602 85.7313C153.057 82.2609 154.284 77.9439 154.284 72.7806C154.284 67.6172 153.057 63.3003 150.602 59.8298C148.147 56.3594 144.994 54.6241 141.143 54.6241C137.291 54.6241 134.138 56.3594 131.684 59.8298C129.229 63.3003 128.002 67.6172 128.002 72.7806C128.002 77.9439 129.229 82.2609 131.684 85.7313ZM174.663 95L200.755 50.5611H205.008L178.916 95H174.663ZM177.139 49.7993C180.271 49.7993 182.852 50.8362 184.884 52.9101C186.915 54.9416 187.931 57.4598 187.931 60.4647C187.931 63.4696 186.915 66.0089 184.884 68.0828C182.852 70.1566 180.271 71.1935 177.139 71.1935C174.092 71.1935 171.552 70.1566 169.521 68.0828C167.532 66.0089 166.537 63.4696 166.537 60.4647C166.537 57.4598 167.532 54.9416 169.521 52.9101C171.552 50.8362 174.092 49.7993 177.139 49.7993ZM172.314 65.5434C173.541 66.8554 175.15 67.5114 177.139 67.5114C179.128 67.5114 180.736 66.8554 181.964 65.5434C183.233 64.2314 183.868 62.5385 183.868 60.4647C183.868 58.4755 183.233 56.8249 181.964 55.5129C180.736 54.2009 179.128 53.5449 177.139 53.5449C175.192 53.5449 173.605 54.2009 172.378 55.5129C171.15 56.8249 170.536 58.4755 170.536 60.4647C170.536 62.5385 171.129 64.2314 172.314 65.5434ZM202.342 74.3677C205.432 74.3677 207.992 75.4046 210.024 77.4784C212.055 79.5522 213.071 82.0916 213.071 85.0965C213.071 88.1014 212.055 90.6408 210.024 92.7146C207.992 94.7461 205.432 95.7618 202.342 95.7618C199.295 95.7618 196.755 94.7249 194.724 92.6511C192.692 90.5773 191.677 88.0591 191.677 85.0965C191.677 82.0916 192.692 79.5522 194.724 77.4784C196.755 75.4046 199.295 74.3677 202.342 74.3677ZM197.517 90.1117C198.745 91.3814 200.353 92.0162 202.342 92.0162C204.331 92.0162 205.939 91.3814 207.167 90.1117C208.394 88.7997 209.008 87.128 209.008 85.0965C209.008 83.065 208.394 81.3932 207.167 80.0812C205.939 78.7269 204.331 78.0498 202.342 78.0498C200.353 78.0498 198.745 78.7269 197.517 80.0812C196.29 81.3932 195.676 83.065 195.676 85.0965C195.676 87.128 196.29 88.7997 197.517 90.1117Z" fill="white"/>
<path d="M71.66 172.23V165.93H73.49C74.37 164.75 74.99 163.2 75.35 161.28C75.73 159.36 75.92 156.75 75.92 153.45H86.87V165.93H89.54V172.23H87.26V168H73.94V172.23H71.66ZM76.1 165.93H84.5V155.52H78.11C78.11 160.24 77.44 163.71 76.1 165.93ZM94.201 155.34C95.681 153.84 97.571 153.09 99.871 153.09C102.171 153.09 104.061 153.84 105.541 155.34C107.021 156.84 107.761 158.64 107.761 160.74C107.761 162.84 107.021 164.64 105.541 166.14C104.061 167.62 102.171 168.36 99.871 168.36C97.571 168.36 95.681 167.62 94.201 166.14C92.721 164.64 91.981 162.84 91.981 160.74C91.981 158.64 92.721 156.84 94.201 155.34ZM95.971 164.67C97.011 165.71 98.311 166.23 99.871 166.23C101.431 166.23 102.731 165.71 103.771 164.67C104.811 163.61 105.331 162.3 105.331 160.74C105.331 159.18 104.811 157.87 103.771 156.81C102.731 155.75 101.431 155.22 99.871 155.22C98.311 155.22 97.011 155.75 95.971 156.81C94.931 157.87 94.411 159.18 94.411 160.74C94.411 162.3 94.931 163.61 95.971 164.67ZM112.572 168V153.45H120.282C121.722 153.45 122.822 153.79 123.582 154.47C124.342 155.15 124.722 156.05 124.722 157.17C124.722 158.73 124.112 159.79 122.892 160.35C124.752 160.91 125.682 162.15 125.682 164.07C125.682 165.29 125.262 166.25 124.422 166.95C123.582 167.65 122.372 168 120.792 168H112.572ZM114.972 165.96H120.312C122.292 165.96 123.282 165.23 123.282 163.77C123.282 162.27 122.292 161.52 120.312 161.52H114.972V165.96ZM114.972 159.57H119.652C120.512 159.57 121.182 159.4 121.662 159.06C122.142 158.7 122.382 158.19 122.382 157.53C122.382 156.17 121.472 155.49 119.652 155.49H114.972V159.57ZM131.086 155.34C132.566 153.84 134.456 153.09 136.756 153.09C139.056 153.09 140.946 153.84 142.426 155.34C143.906 156.84 144.646 158.64 144.646 160.74C144.646 162.84 143.906 164.64 142.426 166.14C140.946 167.62 139.056 168.36 136.756 168.36C134.456 168.36 132.566 167.62 131.086 166.14C129.606 164.64 128.866 162.84 128.866 160.74C128.866 158.64 129.606 156.84 131.086 155.34ZM132.856 164.67C133.896 165.71 135.196 166.23 136.756 166.23C138.316 166.23 139.616 165.71 140.656 164.67C141.696 163.61 142.216 162.3 142.216 160.74C142.216 159.18 141.696 157.87 140.656 156.81C139.616 155.75 138.316 155.22 136.756 155.22C135.196 155.22 133.896 155.75 132.856 156.81C131.816 157.87 131.296 159.18 131.296 160.74C131.296 162.3 131.816 163.61 132.856 164.67ZM146.249 168V165.84C146.349 165.88 146.549 165.9 146.849 165.9C147.449 165.9 147.959 165.71 148.379 165.33C148.819 164.93 149.149 164.36 149.369 163.62C149.589 162.88 149.749 162.08 149.849 161.22C149.969 160.34 150.039 159.31 150.059 158.13L150.179 153.45H161.219V168H158.849V155.52H152.459L152.369 158.19C152.349 159.09 152.309 159.87 152.249 160.53C152.189 161.19 152.089 161.94 151.949 162.78C151.829 163.6 151.639 164.3 151.379 164.88C151.139 165.44 150.829 165.98 150.449 166.5C150.069 167 149.579 167.38 148.979 167.64C148.399 167.9 147.729 168.03 146.969 168.03C146.649 168.03 146.409 168.02 146.249 168ZM166.215 168V153.45H168.615V158.22H173.505C175.245 158.22 176.615 158.66 177.615 159.54C178.615 160.42 179.115 161.61 179.115 163.11C179.115 164.55 178.625 165.73 177.645 166.65C176.685 167.55 175.335 168 173.595 168H166.215ZM168.615 165.93H173.205C174.305 165.93 175.165 165.69 175.785 165.21C176.405 164.73 176.715 164.04 176.715 163.14C176.715 162.2 176.405 161.49 175.785 161.01C175.185 160.53 174.325 160.29 173.205 160.29H168.615V165.93ZM183.617 168V153.45H186.017V159.48H194.627V153.45H196.997V168H194.627V161.61H186.017V168H183.617ZM216.505 168V153.45H218.875V168H216.505ZM202.015 168V153.45H204.415V158.22H208.585C210.325 158.22 211.685 158.66 212.665 159.54C213.665 160.42 214.165 161.61 214.165 163.11C214.165 164.55 213.685 165.73 212.725 166.65C211.765 167.55 210.415 168 208.675 168H202.015ZM204.415 165.93H208.255C209.375 165.93 210.235 165.69 210.835 165.21C211.455 164.73 211.765 164.04 211.765 163.14C211.765 161.24 210.595 160.29 208.255 160.29H204.415V165.93Z" fill="white"/>
</svg>
